<svg xmlns="http://www.w3.org/2000/svg" width="112" height="28" fill="#fff" xmlns:v="https://vecta.io/nano"><path d="M70.8 21.16h4.1v1h-4.1zm-68.3-5.8l-.4 9.5v.2c0 .8.2 1 1.5 1.1v.4c-.9-.1-1.3-.1-1.8-.1s-.9 0-1.8.1v-.4c1.3-.1 1.5-.2 1.5-1.2l.4-9v-.1c0-.8-.3-1-1.5-1.1v-.5c.7.1 1 .1 1.5.1.7 0 1 0 1.7-.1l3.4 9.3 3.5-9.3c.8.1 1.2.1 1.8.1.5 0 .8 0 1.5-.1v.5c-1.2.1-1.5.3-1.5 1.1v.1l.2 9c0 1 .2 1.1 1.5 1.2v.4l-2.3-.1-2.3.1v-.4c1.2-.1 1.5-.3 1.5-1.1v-.1l-.2-9.5-3.1 8.1-.2.6-.3.7-.2.7-.2.6h-.3l-.2-.6-.3-.7-.2-.7-.2-.7zm16.2 10.8c-1.7 0-2.4-1.3-2.4-4.2h5.5c0-2.8-1.2-4.3-3.4-4.3s-3.6 1.8-3.6 4.6 1.4 4.5 3.7 4.5c1.8 0 3-1.1 3.2-3H21c-.2 1.5-1 2.4-2.3 2.4m-2.4-4.9c.2-2.1.9-3.2 2.1-3.2s1.8 1 1.9 3.2zm6.5-3v-.3c1-.1 1.7-.2 2.4-.4l.2 1.5v.2c.4-1 1.2-1.7 2.1-1.7s1.6.6 1.6 1.5c0 .5-.3.9-.8.9-.4 0-.8-.3-.8-.6v-.2-.2-.1c0-.3-.2-.4-.6-.4-1 0-1.6 1.2-1.6 3v3.8c0 .8.2.9 1.3 1v.4c-1-.1-1.4-.1-2-.1l-2.1.1v-.4c1.1-.1 1.3-.2 1.3-1v-5.8-.3c0-.8-.1-.9-1.1-.9zm13.4-.8v3h-.4c-.3-1.6-1-2.4-2.1-2.4-1.4 0-2.2 1.5-2.2 4.1s.7 3.9 2.1 3.9c1.1 0 1.8-.8 2-2.4h.8c-.2 2-1.3 3-2.9 3-2.1 0-3.6-1.8-3.6-4.5s1.5-4.6 3.6-4.6c.8 0 1.3.2 1.9.8l.5-.9zm5.4 8.7c-1.7 0-2.4-1.3-2.4-4.2h5.5c0-2.8-1.2-4.3-3.4-4.3s-3.6 1.8-3.6 4.6 1.4 4.5 3.7 4.5c1.8 0 3-1.1 3.2-3h-.7c-.2 1.5-1 2.4-2.3 2.4m-2.4-4.9c.2-2.1.9-3.2 2.1-3.2s1.8 1 1.9 3.2zm14 3.4v-10.6c-.9.2-1.7.4-2.8.5v.3c1.2 0 1.3.1 1.3 1.1v3.2c-.7-1.1-1.2-1.4-2.2-1.4-2 0-3.3 1.9-3.3 4.5s1.4 4.5 3.4 4.5c1 0 1.8-.5 2.3-1.5.1.7.1.8.3 1.5.8-.2 1.1-.3 2.1-.4h.3v-.3c-1.3-.2-1.4-.3-1.4-1.4m-3.5 1.6c-1.3 0-2-1.4-2-4 0-2.7.6-4 2-4s2.1 1.4 2.1 4.1c-.1 2.5-.8 3.9-2.1 3.9m9.4-.1c-1.7 0-2.4-1.3-2.4-4.2h5.5c0-2.8-1.2-4.3-3.4-4.3s-3.6 1.8-3.6 4.6 1.4 4.5 3.7 4.5c1.8 0 3-1.1 3.2-3h-.7c-.2 1.5-1 2.4-2.3 2.4m-2.4-4.9c.2-2.1.9-3.2 2.1-3.2s1.8 1 1.9 3.2zm7 5.5v-3.1h.4c.3 1.7 1.1 2.5 2.4 2.5 1.1 0 1.9-.7 1.9-1.7 0-.6-.3-1-1.2-1.5l-.7-.3-.9-.3c-1.3-.6-1.8-1.1-1.8-2.2 0-1.5 1.1-2.4 2.8-2.4.7 0 1.2.2 1.9.6l.3-.8h.3v2.8h-.4c-.2-1.5-.8-2.2-1.9-2.2-1 0-1.7.7-1.7 1.5 0 .7.3 1 1.9 1.7l.8.3c1.4.6 1.9 1.2 1.9 2.3 0 1.5-1.2 2.6-3 2.6a3.16 3.16 0 0 1-2.2-.8l-.4.8h-.4zm19.8-9.5c0-1-.4-1.8-1.1-2.3-.6-.5-1.3-.7-2.5-.7h-4.8v.5c1.3.1 1.5.2 1.5 1.2v8.9c0 1-.1 1.1-1.5 1.2v.4h4.6c1.4 0 2.1-.2 2.9-.6.9-.6 1.5-1.7 1.5-2.9 0-1-.4-1.9-1.1-2.4-.4-.3-.8-.5-1.5-.6 1.3-.5 2-1.4 2-2.7m-5.4-2.4h1.6c1.5 0 2.2.8 2.2 2.5 0 .8-.2 1.5-.6 1.9-.4.5-.9.6-1.9.6h-1.3zm1.8 5.5c1 0 1.5.2 1.9.6s.7 1.2.7 2.1c0 1.8-.9 2.9-2.6 2.9h-.7c-1 0-1.1-.1-1.1-1v-4.6zm9.6 5.8c-1.7 0-2.4-1.3-2.4-4.2h5.5c0-2.8-1.2-4.3-3.4-4.3s-3.6 1.8-3.6 4.6 1.4 4.5 3.7 4.5c1.8 0 3-1.1 3.2-3h-.7c-.2 1.5-1 2.4-2.3 2.4m-2.4-4.9c.2-2.1.9-3.2 2.1-3.2s1.8 1 1.9 3.2zm6.4-2.9v-.3c1.1-.1 1.7-.3 2.4-.6.1.4.1.9.2 1.6.7-1 1.4-1.4 2.5-1.4s2.1.6 2.4 1.5c.2.4.3 1 .3 1.7v4.4c0 .8.2.9 1.3 1v.4c-1-.1-1.3-.1-2-.1l-2 .1v-.4c1 0 1.2-.2 1.2-1v-4.5c0-1.6-.5-2.2-1.7-2.2s-1.9.8-1.9 2.3v4.4c0 .7.2.9 1.2 1v.4c-1-.1-1.3-.1-2-.1l-2 .1v-.4c1.1-.1 1.3-.2 1.3-1v-5.7-.3c0-.8-.1-.9-1-.9h-.2m9.8 8.2l5-8.2H106c-1.2 0-1.5.3-2.1 1.9h-.4l.4-2.4h6.3l-5 8.2h2.1c1.2 0 1.8-.5 2.3-2.2h.4l-.5 2.6h-6.2z"/></svg>